<svg width="50" height="50" viewBox="0 0 50 50" fill="none" xmlns="http://www.w3.org/2000/svg">
<path d="M49.9708 16.1875C48.3552 16.9031 46.6177 17.3802 44.7844 17.6062C46.6479 16.5 48.0823 14.7354 48.7552 12.65C47.0115 13.6719 45.0792 14.4229 43.024 14.8188C41.3823 13.0792 39.0406 12 36.4469 12C31.4646 12 27.425 16.0031 27.425 20.9396C27.425 21.6385 27.5073 22.3188 27.6604 22.9792C20.1646 22.6031 13.5156 19.0396 9.06771 13.6312C8.28646 14.9531 7.84687 16.5 7.84687 18.1333C7.84687 21.2365 9.43542 23.9687 11.8583 25.5781C10.3792 25.5333 8.9875 25.1219 7.76875 24.4615C7.76875 24.4885 7.76875 24.5281 7.76875 24.5667C7.76875 28.9031 10.8792 32.5146 15.0021 33.3365C14.249 33.5427 13.4521 33.6573 12.6312 33.6573C12.049 33.6573 11.4813 33.5917 10.9313 33.4927C12.0792 37.0365 15.4094 39.6271 19.3552 39.7042C16.2677 42.0979 12.3792 43.5312 8.15104 43.5312C7.42083 43.5312 6.70625 43.4896 6 43.4042C9.99687 45.9344 14.7396 47.4167 19.8312 47.4167C36.4219 47.4167 45.499 33.7927 45.499 21.9729C45.499 21.5854 45.4865 21.2 45.4687 20.8187C47.2396 19.5677 48.7656 17.9906 49.9708 16.1875Z" fill="url(#paint0_linear_409_10)"/>
<defs>
<linearGradient id="paint0_linear_409_10" x1="12.7167" y1="13.3667" x2="44.4427" y2="45.0927" gradientUnits="userSpaceOnUse">
<stop stop-color="#2AA4F4"/>
<stop offset="1" stop-color="#007AD9"/>
</linearGradient>
</defs>
</svg>
